<svg width="224" height="224" viewBox="0 0 224 224" fill="none" xmlns="http://www.w3.org/2000/svg">
<g clip-path="url(#clip0_18_51)">
<path d="M6.40003 6.40004C2.40064 10.4006 0.153912 15.8259 0.153912 21.4827C0.153912 27.1395 2.40064 32.5648 6.40003 36.5654L81.8347 112L6.40003 187.435C4.36248 189.403 2.73725 191.757 1.61919 194.359C0.501135 196.962 -0.0873727 199.762 -0.111987 202.594C-0.136602 205.427 0.403163 208.236 1.47582 210.858C2.54848 213.479 4.13255 215.861 6.13559 217.864C8.13864 219.867 10.5205 221.452 13.1423 222.524C15.7641 223.597 18.5733 224.137 21.4059 224.112C24.2385 224.087 27.0379 223.499 29.6406 222.381C32.2434 221.263 34.5974 219.638 36.5654 217.6L112 142.165L187.435 217.6C191.458 221.486 196.847 223.636 202.441 223.588C208.034 223.539 213.385 221.296 217.34 217.34C221.296 213.385 223.539 208.034 223.588 202.441C223.636 196.847 221.486 191.458 217.6 187.435L142.165 112L217.6 36.5654C221.486 32.5419 223.636 27.153 223.588 21.5595C223.539 15.9659 221.296 10.6153 217.34 6.65991C213.385 2.70454 208.034 0.460929 202.441 0.412323C196.847 0.363717 191.458 2.51401 187.435 6.40004L112 81.8347L36.5654 6.40004C32.5648 2.40066 27.1395 0.153931 21.4827 0.153931C15.8259 0.153931 10.4006 2.40066 6.40003 6.40004Z" fill="black"/>
</g>
<defs>
<clipPath id="clip0_18_51">
<rect width="224" height="224" fill="white"/>
</clipPath>
</defs>
</svg>
