<svg width="34" height="20" viewBox="0 0 34 20" fill="none" xmlns="http://www.w3.org/2000/svg">
<g clip-path="url(#clip0_6_373)">
<path d="M33.2295 1.40278C32.847 2.59045 32.3313 3.62424 31.6853 4.56291L31.7122 4.52094C31.0776 5.56546 30.3196 6.77225 29.4385 8.14132C28.6829 9.2222 28.2829 9.78177 28.2386 9.82C28.0431 10.062 27.9071 10.3586 27.8603 10.6845L27.8589 10.6943C27.8971 10.9909 28.036 11.2497 28.2386 11.4427L28.8052 12.0666C31.8369 15.1433 33.5421 17.2641 33.9208 18.4289C33.9704 18.5576 33.9987 18.7059 33.9987 18.8611C33.9987 19.1325 33.9109 19.3829 33.7621 19.5886L33.765 19.5844C33.5156 19.8376 33.1671 19.9943 32.7818 19.9943C32.7393 19.9943 32.6954 19.9929 32.6543 19.9887H32.66H28.9327C28.9313 19.9887 28.9285 19.9887 28.9256 19.9887C28.4482 19.9887 28.0091 19.8236 27.6648 19.5494L27.6691 19.5522C27.1676 19.1451 26.7213 18.7045 26.3218 18.226L26.3091 18.2093C25.6564 17.4809 25.0775 16.8677 24.5722 16.3697C22.8892 14.7899 21.6473 13.9999 20.8464 13.9999C20.8166 13.9971 20.7826 13.9957 20.7472 13.9957C20.5135 13.9957 20.2953 14.0671 20.1154 14.1888L20.1196 14.186C19.9723 14.3679 19.8831 14.6029 19.8831 14.8561C19.8831 14.9064 19.8859 14.954 19.893 15.003V14.9974C19.8547 15.4366 19.8321 15.9472 19.8321 16.4634C19.8321 16.6299 19.8349 16.795 19.8391 16.96V16.9362V18.5576C19.8533 18.6233 19.8618 18.6989 19.8618 18.7758C19.8618 19.1143 19.706 19.4165 19.4623 19.6166L19.4609 19.618C18.9126 19.8656 18.2723 20.011 17.5966 20.011C17.4521 20.011 17.3104 20.004 17.1701 19.9915L17.1886 19.9929C14.9587 19.9509 12.8904 19.306 11.1323 18.219L11.1819 18.247C9.04131 16.9628 7.26764 15.2911 5.91614 13.3159L5.87789 13.2571C4.59439 11.5756 3.39731 9.67592 2.37731 7.67268L2.27814 7.45725C1.68173 6.33533 1.06406 4.956 0.531394 3.53751L0.446395 3.27871C0.229645 2.64081 0.0723945 1.89939 0.00722786 1.13139L0.00439453 1.09642C0.00439453 0.389505 0.425617 0.0360474 1.26806 0.0360474H4.99389C5.02789 0.0332496 5.06756 0.0318503 5.10864 0.0318503C5.45998 0.0318503 5.78439 0.150758 6.04081 0.350801L6.03798 0.348004C6.32131 0.654364 6.53098 1.03067 6.63439 1.45034L6.63864 1.46713C7.32431 3.37944 8.05106 4.98538 8.88689 6.52418L8.79198 6.33253C9.47481 7.68947 10.2299 8.85756 11.0912 9.93611L11.0586 9.89275C11.8142 10.8086 12.4035 11.2665 12.8266 11.2665C12.8394 11.2679 12.855 11.2679 12.872 11.2679C13.0816 11.2679 13.2644 11.156 13.3636 10.9881L13.365 10.9853C13.4698 10.7195 13.5307 10.4103 13.5307 10.0886C13.5307 10.02 13.5279 9.9515 13.5222 9.88435V9.89275V4.46639C13.4925 3.82709 13.3338 3.22975 13.0689 2.69397L13.0802 2.72055C12.9046 2.35124 12.6935 2.03229 12.4427 1.74831L12.447 1.75391C12.2146 1.52448 12.056 1.22372 12.0064 0.887982L12.005 0.879588C12.005 0.641774 12.1155 0.427741 12.2883 0.28785L12.2897 0.286452C12.4611 0.131173 12.6906 0.0374462 12.9414 0.0374462H12.9527H18.8262C18.8574 0.0332495 18.8928 0.0318503 18.9296 0.0318503C19.2059 0.0318503 19.4538 0.154955 19.6181 0.348004L19.6196 0.349403C19.7655 0.612397 19.8519 0.927151 19.8519 1.26009C19.8519 1.31325 19.8491 1.36501 19.8448 1.41677V1.40977V8.64632C19.842 8.67989 19.8406 8.71906 19.8406 8.75823C19.8406 9.01563 19.9128 9.25764 20.0375 9.46328L20.0346 9.45769C20.1381 9.60877 20.3109 9.70669 20.5064 9.70669C20.7557 9.68991 20.9838 9.60877 21.1751 9.48007L21.1708 9.48287C21.5561 9.22127 21.8876 8.9233 22.1752 8.58617L22.1809 8.57917C23.0408 7.61952 23.8341 6.55915 24.5255 5.43163L24.5807 5.33371C25.0681 4.53633 25.5951 3.5543 26.0725 2.54569L26.1603 2.34005L26.7921 1.09222C27.0117 0.468309 27.6011 0.0290527 28.2938 0.0290527C28.3207 0.0290527 28.3476 0.0290526 28.3746 0.0304515H28.3703H32.0976C33.1043 0.0304515 33.4821 0.487894 33.2309 1.40278H33.2295Z" fill="#838383"/>
</g>
<defs>
<clipPath id="clip0_6_373">
<rect width="34" height="20" fill="white"/>
</clipPath>
</defs>
</svg>
